PathFileType	4	(X/Y/Z)	/home/nbianco/projects/addbio/data/HamnerRunning2013/Processed/subject11//results/MarkerData/run400.trc
DataRate	CameraRate	NumFrames	NumMarkers	Units	OrigDataRate	OrigDataStartFrame	OrigNumFrames
100	100	10	42	m	100	0	187
Frame#	Time	C7			CLAV			LACR			LASI			LCAL			LFAradius			LFAsuperior			LFAulna			LLEL			LMEL			LMT5			LPSI			LTB1			LTB2			LTB3			LTH1			LTH2			LTH3			LTOE			LUA1			LUA2			LUA3			RACR			RASI			RCAL			RFAradius			RFAsuperior			RFAulna			RLEL			RMEL			RMT5			RPSI			RTB1			RTB2			RTB3			RTH1			RTH2			RTH3			RTOE			RUA1			RUA2			RUA3		
		X1	Y1	Z1	X2	Y2	Z2	X3	Y3	Z3	X4	Y4	Z4	X5	Y5	Z5	X6	Y6	Z6	X7	Y7	Z7	X8	Y8	Z8	X9	Y9	Z9	X10	Y10	Z10	X11	Y11	Z11	X12	Y12	Z12	X13	Y13	Z13	X14	Y14	Z14	X15	Y15	Z15	X16	Y16	Z16	X17	Y17	Z17	X18	Y18	Z18	X19	Y19	Z19	X20	Y20	Z20	X21	Y21	Z21	X22	Y22	Z22	X23	Y23	Z23	X24	Y24	Z24	X25	Y25	Z25	X26	Y26	Z26	X27	Y27	Z27	X28	Y28	Z28	X29	Y29	Z29	X30	Y30	Z30	X31	Y31	Z31	X32	Y32	Z32	X33	Y33	Z33	X34	Y34	Z34	X35	Y35	Z35	X36	Y36	Z36	X37	Y37	Z37	X38	Y38	Z38	X39	Y39	Z39	X40	Y40	Z40	X41	Y41	Z41	X42	Y42	Z42

1	0.54	0.686306	1.5197	-0.328547	0.796146	1.4381	-0.275329	0.780844	1.48835	-0.478163	0.765335	1.02466	-0.440996	0.156113	0.449676	-0.402558	0.923432	1.21493	-0.409771	0.851316	1.18326	-0.550837	0.950996	1.15185	-0.432627	0.765775	1.17076	-0.622731	0.707248	1.15918	-0.560598	0.0907612	0.269106	-0.444452	0.595816	1.05371	-0.362047	0.440738	0.413599	-0.386167	0.351562	0.435213	-0.458016	0.290753	0.373355	-0.393862	0.652521	0.834676	-0.483506	0.677382	0.693177	-0.456953	0.588076	0.598403	-0.449239	0.120643	0.229639	-0.350935	0.76567	1.39962	-0.562885	0.70823	1.31838	-0.556354	0.741563	1.25682	-0.60257	0.722134	1.51354	-0.157261	0.759671	1.02813	-0.185078	0.896098	0.088871	-0.292053	0.665543	1.10534	-0.058049	0.546712	1.21369	-0.0396607	0.604346	1.06668	-0.0601534	0.472762	1.29428	-0.0614586	0.478755	1.2841	-0.14271	1.07201	0.106338	-0.212619	0.592183	1.04232	-0.259262	0.942998	0.417453	-0.266876	0.932406	0.352051	-0.203836	0.96549	0.25158	-0.277107	0.702533	0.820612	-0.132705	0.823314	0.748235	-0.14687	0.806102	0.620218	-0.184658	1.11204	0.148781	-0.2984	0.633105	1.47157	-0.090123	0.563602	1.42067	-0.141498	0.550623	1.37377	-0.0791876
2	0.55	0.68694	1.51409	-0.325765	0.796824	1.43131	-0.274911	0.780052	1.48262	-0.476932	0.764007	1.02032	-0.441987	0.178708	0.46597	-0.402804	0.919217	1.20135	-0.409921	0.845701	1.17435	-0.551644	0.944335	1.13738	-0.434165	0.759388	1.16658	-0.623415	0.701571	1.15597	-0.561587	0.0964529	0.293587	-0.448435	0.594168	1.04453	-0.36164	0.455697	0.409215	-0.385639	0.367802	0.437684	-0.458833	0.304383	0.38069	-0.394508	0.65753	0.827101	-0.48493	0.686485	0.686011	-0.457683	0.601271	0.588357	-0.449841	0.121455	0.24967	-0.35571	0.763354	1.39482	-0.562055	0.704757	1.31466	-0.555925	0.736901	1.25274	-0.602631	0.725504	1.50641	-0.155565	0.757817	1.02372	-0.184107	0.870514	0.090201	-0.296479	0.67602	1.0981	-0.0555928	0.556072	1.20426	-0.0348243	0.615579	1.05842	-0.0569292	0.48047	1.28369	-0.0548263	0.486199	1.27363	-0.136552	1.04393	0.0913723	-0.213562	0.589502	1.03288	-0.258989	0.935518	0.408734	-0.269768	0.922681	0.344355	-0.208205	0.9493	0.241682	-0.280004	0.703757	0.816226	-0.133531	0.826304	0.747379	-0.147657	0.807173	0.616887	-0.186065	1.08995	0.125939	-0.300011	0.638079	1.46336	-0.0861242	0.567059	1.41222	-0.13576	0.557056	1.36401	-0.0738224
3	0.56	0.687137	1.50752	-0.323106	0.797575	1.42355	-0.274687	0.779044	1.47592	-0.475851	0.762664	1.01478	-0.44299	0.203039	0.478548	-0.401164	0.914761	1.1856	-0.411365	0.838891	1.16438	-0.553175	0.936892	1.12085	-0.437254	0.751445	1.16172	-0.623599	0.694107	1.15207	-0.562015	0.107874	0.314424	-0.452392	0.592358	1.03426	-0.361622	0.473245	0.404895	-0.385168	0.386477	0.438743	-0.459614	0.321165	0.38611	-0.394968	0.661825	0.818296	-0.48604	0.695477	0.678444	-0.45964	0.614971	0.577958	-0.450974	0.128583	0.265814	-0.361108	0.760328	1.38887	-0.561395	0.700535	1.30997	-0.555294	0.731277	1.24773	-0.60271	0.728874	1.49846	-0.153964	0.755981	1.01831	-0.183005	0.840533	0.0923129	-0.300333	0.68755	1.09028	-0.0528147	0.566299	1.19386	-0.0294679	0.627979	1.04941	-0.0532386	0.488929	1.27189	-0.047592	0.493653	1.26194	-0.129582	1.01177	0.0767536	-0.214802	0.586761	1.0236	-0.259276	0.927269	0.399063	-0.271456	0.910229	0.335635	-0.212261	0.930165	0.23075	-0.281777	0.704644	0.811205	-0.135989	0.828008	0.744609	-0.150049	0.80562	0.611556	-0.187489	1.06239	0.104009	-0.301248	0.643255	1.45401	-0.0819509	0.570736	1.40271	-0.129439	0.564009	1.35312	-0.0679287
4	0.57	0.687011	1.50038	-0.320606	0.798412	1.41509	-0.274634	0.777765	1.46851	-0.475101	0.761286	1.00815	-0.443857	0.227755	0.487765	-0.397959	0.91001	1.16761	-0.414122	0.830973	1.15351	-0.555321	0.928659	1.10254	-0.441885	0.742113	1.15608	-0.623439	0.685142	1.14745	-0.56205	0.124693	0.330878	-0.456248	0.590182	1.0231	-0.362207	0.49325	0.400786	-0.384765	0.40745	0.438537	-0.460376	0.340748	0.389579	-0.395324	0.665633	0.808341	-0.486573	0.704604	0.670543	-0.462266	0.629404	0.567084	-0.452339	0.142209	0.27754	-0.367049	0.756422	1.3819	-0.56094	0.695506	1.30428	-0.554481	0.724709	1.24182	-0.602789	0.73208	1.49007	-0.152299	0.754159	1.01207	-0.181848	0.807222	0.0946609	-0.303274	0.70012	1.08198	-0.0498114	0.57734	1.1826	-0.0236948	0.641531	1.03979	-0.0492064	0.498137	1.25898	-0.0399024	0.500612	1.24903	-0.121758	0.976936	0.0651755	-0.216118	0.584049	1.01418	-0.260405	0.918402	0.38961	-0.272426	0.895988	0.327234	-0.215559	0.908867	0.220608	-0.282756	0.704353	0.805915	-0.138787	0.827095	0.739395	-0.15248	0.801904	0.60489	-0.189053	1.03051	0.0857836	-0.302481	0.64863	1.44353	-0.0776518	0.574616	1.39208	-0.122556	0.571422	1.34111	-0.0615358
5	0.58	0.686832	1.49335	-0.318282	0.799259	1.40646	-0.274632	0.776052	1.46092	-0.474923	0.75987	1.00053	-0.444371	0.251925	0.494042	-0.393845	0.904897	1.14752	-0.418204	0.822087	1.14196	-0.55802	0.91959	1.08281	-0.44806	0.731705	1.14976	-0.623311	0.675281	1.14217	-0.56204	0.146255	0.342208	-0.459855	0.587552	1.01184	-0.36372	0.515503	0.397102	-0.384456	0.430415	0.437299	-0.461079	0.362748	0.391139	-0.39563	0.669616	0.797765	-0.486343	0.714235	0.662706	-0.464833	0.644891	0.555939	-0.453489	0.162038	0.284465	-0.373175	0.751469	1.37429	-0.560712	0.689596	1.29773	-0.553538	0.71728	1.23527	-0.602803	0.734833	1.48195	-0.150396	0.752251	1.00546	-0.180555	0.771738	0.0967488	-0.305137	0.713694	1.07339	-0.0467687	0.589222	1.17069	-0.0176768	0.656212	1.02981	-0.0450546	0.508197	1.24518	-0.0319658	0.506967	1.23501	-0.113144	0.940697	0.0591303	-0.217189	0.581479	1.00466	-0.262592	0.908477	0.381828	-0.273386	0.88083	0.321018	-0.217678	0.885923	0.21358	-0.283581	0.702358	0.801429	-0.140359	0.822812	0.732215	-0.153133	0.796958	0.598428	-0.190887	0.995749	0.073845	-0.303857	0.654348	1.43207	-0.0733639	0.57878	1.38039	-0.115049	0.579414	1.32809	-0.0547143
6	0.59	0.68683	1.48708	-0.316146	0.799944	1.39838	-0.274555	0.773644	1.45383	-0.475405	0.758351	0.991976	-0.444503	0.275907	0.497501	-0.389636	0.899335	1.12575	-0.423598	0.81233	1.12986	-0.561265	0.909536	1.06194	-0.455751	0.720484	1.14326	-0.623365	0.665056	1.13656	-0.562067	0.171886	0.348143	-0.463058	0.584722	1.00189	-0.366156	0.539769	0.394033	-0.384267	0.455035	0.435206	-0.461615	0.386883	0.390939	-0.395871	0.674439	0.787653	-0.485539	0.724658	0.655714	-0.466953	0.661708	0.545466	-0.454174	0.187127	0.286783	-0.378779	0.74547	1.36669	-0.560638	0.682783	1.29074	-0.552405	0.709093	1.22865	-0.602573	0.736903	1.47473	-0.14831	0.75018	0.999236	-0.178906	0.7347	0.0984648	-0.306153	0.728249	1.06479	-0.0439078	0.602181	1.15844	-0.01166	0.671998	1.0198	-0.0409656	0.519374	1.23078	-0.023954	0.513479	1.2202	-0.104017	0.903306	0.0582025	-0.217707	0.579124	0.996006	-0.265549	0.896313	0.37617	-0.274663	0.864422	0.317644	-0.218665	0.860936	0.210267	-0.284683	0.698973	0.798518	-0.1404	0.816191	0.724779	-0.151967	0.791386	0.593484	-0.192779	0.959088	0.0682517	-0.304748	0.660593	1.42018	-0.0693431	0.583449	1.36792	-0.106861	0.588361	1.31459	-0.0476611
7	0.6	0.686958	1.48189	-0.314231	0.800289	1.39148	-0.274444	0.770322	1.44785	-0.47637	0.756521	0.982908	-0.44459	0.300496	0.498034	-0.38607	0.893132	1.1029	-0.430263	0.801707	1.11748	-0.564906	0.898199	1.04017	-0.464832	0.708607	1.13736	-0.623212	0.654648	1.13119	-0.561689	0.201042	0.34878	-0.465732	0.582072	0.994697	-0.368914	0.565786	0.391716	-0.384209	0.481144	0.432332	-0.461909	0.412884	0.389169	-0.396009	0.680089	0.779188	-0.484607	0.735992	0.650362	-0.468622	0.680002	0.537108	-0.454492	0.216269	0.285067	-0.383062	0.738592	1.35995	-0.560514	0.675193	1.28414	-0.550769	0.700179	1.22277	-0.601807	0.738359	1.46865	-0.146375	0.748053	0.99412	-0.176904	0.696419	0.0998855	-0.306641	0.74383	1.05658	-0.0414556	0.61661	1.14642	-0.0059894	0.688883	1.01015	-0.0369777	0.532024	1.21635	-0.0159714	0.521192	1.20531	-0.0947568	0.864547	0.0595998	-0.217527	0.576993	0.98973	-0.268495	0.880687	0.371809	-0.276065	0.84546	0.315821	-0.218985	0.833162	0.208999	-0.285953	0.694746	0.79685	-0.139806	0.809041	0.718719	-0.150586	0.784792	0.589975	-0.194149	0.921029	0.0668723	-0.304448	0.667273	1.40886	-0.0659087	0.588839	1.35532	-0.0983066	0.598589	1.30154	-0.0407588
8	0.61	0.686912	1.47782	-0.312549	0.800204	1.38617	-0.274525	0.766122	1.44333	-0.477437	0.754192	0.974375	-0.445115	0.325861	0.495589	-0.383615	0.885911	1.07955	-0.438146	0.790171	1.10547	-0.568521	0.885179	1.01796	-0.475075	0.696207	1.13277	-0.622259	0.644061	1.12678	-0.560255	0.233199	0.344351	-0.467763	0.579736	0.990725	-0.371062	0.593266	0.390245	-0.384265	0.508782	0.428782	-0.462006	0.44045	0.386036	-0.396019	0.685677	0.772971	-0.483806	0.748213	0.647076	-0.469962	0.699703	0.531987	-0.454752	0.248429	0.279857	-0.385569	0.731102	1.35477	-0.560086	0.667148	1.27885	-0.548191	0.690502	1.21832	-0.600234	0.739615	1.46362	-0.144938	0.746171	0.990467	-0.175026	0.657251	0.101086	-0.306743	0.760517	1.04935	-0.0396292	0.632775	1.13544	-0.00102594	0.706859	1.00149	-0.0330934	0.546355	1.2027	-0.00810309	0.530619	1.19134	-0.0856588	0.82457	0.0605626	-0.216819	0.575025	0.986579	-0.270593	0.861064	0.367371	-0.277228	0.822947	0.313338	-0.219204	0.802407	0.207399	-0.287008	0.689898	0.795574	-0.139371	0.802208	0.714387	-0.150333	0.775977	0.586692	-0.194581	0.88196	0.0670344	-0.303154	0.673892	1.39921	-0.0632772	0.59496	1.34342	-0.0902908	0.609955	1.29005	-0.0344879
9	0.62	0.686407	1.47481	-0.311021	0.799717	1.38252	-0.275022	0.761397	1.44032	-0.478255	0.751491	0.967869	-0.446196	0.351378	0.49027	-0.382418	0.877161	1.05645	-0.44713	0.777691	1.09485	-0.571612	0.870143	0.996331	-0.486229	0.68343	1.12986	-0.620289	0.633416	1.12408	-0.557434	0.267713	0.335153	-0.469022	0.577564	0.989164	-0.37195	0.62189	0.38968	-0.384401	0.537926	0.424849	-0.461999	0.469282	0.381752	-0.395887	0.690026	0.768816	-0.482928	0.761222	0.645968	-0.471074	0.72052	0.530261	-0.455241	0.282967	0.271433	-0.386386	0.72329	1.35146	-0.559229	0.659071	1.27547	-0.544498	0.680064	1.21559	-0.597798	0.741204	1.45952	-0.144073	0.74488	0.988104	-0.173959	0.617608	0.102174	-0.306484	0.778245	1.04377	-0.0385892	0.650472	1.12642	0.00303848	0.72586	0.994523	-0.0295396	0.562151	1.19078	-0.000512428	0.541552	1.17919	-0.0769143	0.783991	0.060077	-0.215975	0.573138	0.985911	-0.271415	0.837696	0.361903	-0.278027	0.79704	0.308886	-0.219711	0.769265	0.204356	-0.287665	0.68447	0.794367	-0.139019	0.79507	0.710955	-0.151101	0.763947	0.582771	-0.194269	0.842283	0.0670082	-0.301744	0.679901	1.3919	-0.0614085	0.601594	1.33297	-0.0839784	0.621742	1.28089	-0.0292267
10	0.63	0.685446	1.47287	-0.309536	0.798949	1.38038	-0.275953	0.756659	1.43869	-0.478719	0.748901	0.964553	-0.447396	0.37624	0.482184	-0.382385	0.866432	1.03486	-0.456971	0.764211	1.08666	-0.57404	0.853003	0.976927	-0.498096	0.670252	1.12879	-0.617657	0.622878	1.12368	-0.553493	0.303897	0.32162	-0.469408	0.57546	0.988718	-0.371574	0.65133	0.390055	-0.384579	0.568168	0.420949	-0.461849	0.499114	0.376546	-0.395591	0.692551	0.766204	-0.481517	0.77488	0.647189	-0.47204	0.742068	0.531369	-0.456094	0.319651	0.259934	-0.385893	0.715447	1.34995	-0.558065	0.651251	1.27411	-0.540057	0.668961	1.21458	-0.59471	0.743411	1.45644	-0.143606	0.744333	0.986552	-0.17402	0.577816	0.103355	-0.305941	0.796666	1.04057	-0.0383625	0.668922	1.12001	0.00629126	0.745706	0.989957	-0.026821	0.578702	1.18136	0.00650754	0.553494	1.16935	-0.0687539	0.743415	0.0587481	-0.215275	0.571377	0.986389	-0.271074	0.81123	0.355324	-0.27866	0.768669	0.302916	-0.220524	0.73464	0.200519	-0.288042	0.678784	0.793595	-0.138292	0.786648	0.707474	-0.15202	0.748865	0.578631	-0.193733	0.802339	0.0664522	-0.300755	0.685232	1.38703	-0.060027	0.608518	1.32454	-0.0800366	0.633063	1.27433	-0.0251035
